inDegrees=yes
name=ik_S48_A04_T01
DataType=double
version=3
OpenSimVersion=4.3-2021-08-27-4bc7ad9
endheader
time	pelvis_tilt	pelvis_list	pelvis_rotation	pelvis_tx	pelvis_ty	pelvis_tz	hip_flexion_r	hip_adduction_r	hip_rotation_r	knee_angle_r	knee_angle_r_beta	ankle_angle_r	subtalar_angle_r	mtp_angle_r	hip_flexion_l	hip_adduction_l	hip_rotation_l	knee_angle_l	knee_angle_l_beta	ankle_angle_l	subtalar_angle_l	mtp_angle_l	lumbar_extension	lumbar_bending	lumbar_rotation	arm_flex_r	arm_add_r	arm_rot_r	elbow_flex_r	pro_sup_r	wrist_flex_r	wrist_dev_r	arm_flex_l	arm_add_l	arm_rot_l	elbow_flex_l	pro_sup_l	wrist_flex_l	wrist_dev_l
14.35999999999978	1.719696027141602	-3.760966679569568	37.74859669439696	0	0.9399999999999999	0	-0.2278694001728297	-0.6928538153741597	-15.61006932446699	-0.4176783815228983	-0.007289862971975623	0	0	0	7.2005135719603	-11.77852093794482	-9.991809349876059	6.886378302259925	0.120189974912333	0	0	0	0	0	0	25.28263751043402	-25.28263751043402	3.847798150936351	69.34290365836017	86.15220206729393	0	0	25.28263751043402	-25.28263751043402	3.847798150936351	69.34290365836017	86.15220206707862	0	0
14.37999999999978	1.685870736240263	-3.808891937645415	37.7919269935143	0	0.9399999999999999	0	-0.02636083934294124	-0.728611161185614	-15.63493875846915	-0.2323731886602569	-0.004055677235479433	0	0	0	7.536562145715386	-11.8487096083914	-10.16222841891518	7.23016807235769	0.1261902383352133	0	0	0	0	0	0	25.28567412577036	-25.28567412577036	3.848147968921258	69.34778817171011	86.1518522493278	0	0	25.28567412577036	-25.28567412577036	3.848147968921258	69.34778817171011	86.15185224911257	0	0
14.39999999999978	1.646395703576737	-3.899121662795732	37.88564208629708	0	0.9399999999999999	0	0.195226617931459	-0.7492622652877602	-15.73767509653005	-0.0208374157976846	-0.0003636815132766768	0	0	0	7.801843822799137	-11.90826488570671	-10.10860777190752	7.427853774780583	0.1296405047266105	0	0	0	0	0	0	25.288081764673	-25.288081764673	3.848424246752002	69.35164454390799	86.1515759715118	0	0	25.288081764673	-25.288081764673	3.848424246752002	69.35164454390799	86.15157597129669	0	0
14.41999999999978	1.643986235491427	-3.955741226607728	37.92739806195734	0	0.9399999999999999	0	0.2480863501547047	-0.7120872051743844	-15.78116987635615	0.208655627200907	0.003641727697469668	0	0	0	8.00442511305077	-11.93502161379462	-10.04293966897969	7.737899928942787	0.1350518309498869	0	0	0	0	0	0	25.33868885672238	-25.33868885672237	3.854079957339436	69.43021036921884	86.14592026122546	0	0	25.33868885672238	-25.33868885672237	3.854079957339436	69.43021036921884	86.14592026101138	0	0
14.43999999999978	1.489428166763783	-4.139969422460172	38.03857030783961	0	0.9399999999999999	0	0.7506641774268777	-0.7886546304792491	-16.00384910033073	0.5094923263051752	0.008892318607670622	0	0	0	8.458104344595696	-12.01302753393856	-9.967441559304142	8.077622020302655	0.1409810999858776	0	0	0	0	0	0	25.34267622987629	-25.34267622987628	3.854534704354974	69.43655332597503	86.14546551423419	0	0	25.34267622987629	-25.34267622987628	3.854534704354974	69.43655332597503	86.14546551402024	0	0
14.45999999999978	1.430168482439222	-4.20485089926783	38.0819736198873	0	0.9399999999999999	0	1.032432534050786	-0.8358168630525611	-16.06570835371443	0.7835153502499019	0.01367492260177736	0	0	0	8.678106849823564	-12.05922226860053	-10.06883416822122	8.28829855707499	0.1446580992092537	0	0	0	0	0	0	25.34567230331172	-25.34567230331171	3.854878683916472	69.44135381127369	86.14512153469107	0	0	25.34567230331172	-25.34567230331171	3.854878683916472	69.44135381127369	86.1451215344772	0	0
14.47999999999978	1.375503766502938	-4.244991191551883	38.08429942817245	0	0.9399999999999999	0	1.299418435825012	-0.9238274558839726	-16.04002845173202	1.210316373941628	0.0211240057160803	0	0	0	8.902078480273254	-12.09356153471691	-10.13832450450728	8.566502476185411	0.1495136735896825	0	0	0	0	0	0	25.34833572854121	-25.34833572854121	3.855183811395251	69.4456112693336	86.14481640722856	0	0	25.34833572854121	-25.34833572854121	3.855183811395251	69.4456112693336	86.14481640701473	0	0
14.49999999999978	1.302188244507476	-4.309156087077563	38.1827824457263	0	0.9399999999999999	0	1.554954483661021	-0.9935647725720422	-16.16539865701606	1.36404764840871	0.02380712261881797	0	0	0	9.426785218787186	-12.10073138663624	-9.91364806821251	8.90470096775093	0.1554163507927791	0	0	0	0	0	0	25.35053606469835	-25.35053606469835	3.855435171065369	69.44911766223061	86.14456504757189	0	0	25.35053606469835	-25.35053606469835	3.855435171065369	69.44911766223061	86.1445650473581	0	0
14.51999999999978	1.278595185390395	-4.387076840980293	38.23185064932412	0	0.9399999999999999	0	1.819140906728601	-1.02688241566212	-16.23788008206634	1.742010193156546	0.03040381347388412	0	0	0	9.523546212880873	-12.14384430804079	-9.821683744797706	9.314942369421809	0.1625764139799325	0	0	0	0	0	0	25.40645429395181	-25.40645429395181	3.861691291546147	69.53604787990486	86.13830892742406	0	0	25.40645429395181	-25.40645429395181	3.861691291546147	69.53604787990486	86.13830892721167	0	0
14.53999999999978	1.224191978497094	-4.458276363637458	38.32067364957285	0	0.9399999999999999	0	1.901485392757676	-1.007870311575084	-16.31670586233066	1.853162020041566	0.03234377882263448	0	0	0	9.885468265767635	-12.18306022508216	-9.622796220214449	9.701746321132413	0.1693274164970077	0	0	0	0	0	0	25.46085376102507	-25.46085376102507	3.867820060797087	69.62131419282137	86.13218015850002	0	0	25.46085376102507	-25.46085376102507	3.867820060797087	69.62131419282137	86.13218015828876	0	0
14.55999999999978	1.174349115225552	-4.575045356686081	38.43995013935118	0	0.9399999999999999	0	2.434613297824655	-1.117392040785832	-16.40625291738306	2.355064170303379	0.04110362386754242	0	0	0	10.2920790504471	-12.2626516227422	-9.391003537444725	10.07900180771215	0.1759117668590374	0	0	0	0	0	0	25.46406840112302	-25.46406840112301	3.86818567956634	69.62641036268344	86.13181453975035	0	0	25.46406840112302	-25.46406840112301	3.86818567956634	69.62641036268344	86.13181453953916	0	0
14.57999999999978	1.163505636423417	-4.628265277839199	38.48424241327159	0	0.9399999999999999	0	2.481714617486446	-1.087211533716874	-16.45219273932873	2.566354893153994	0.04479134266020448	0	0	0	10.66772229366703	-12.32337770205694	-9.107168984763803	10.44032806939205	0.1822180997992743	0	0	0	0	0	0	25.46726973215522	-25.46726973215522	3.868550790917762	69.63150050621418	86.13144942841848	0	0	25.46726973215522	-25.46726973215522	3.868550790917762	69.63150050621418	86.1314494282073	0	0
14.59999999999978	1.12094776834739	-4.737124581241587	38.56519917691717	0	0.9399999999999999	0	3.181181371083181	-1.35878956189886	-16.34698955249058	3.360196128395422	0.05864648595326623	0	0	0	11.11530175268214	-12.43903561642673	-8.921919943971302	10.96040972179107	0.1912952370128499	0	0	0	0	0	0	25.4718463947472	-25.4718463947472	3.869072828061051	69.63877836911675	86.13092739130309	0	0	25.4718463947472	-25.4718463947472	3.869072828061051	69.63877836911675	86.13092739109203	0	0
14.61999999999978	0.9494638056736708	-4.954554395938164	38.67919282941764	0	0.9399999999999999	0	3.457789394169475	-1.312599275199317	-16.44880742369098	3.601869188345514	0.06286447656276499	0	0	0	11.66011373958576	-12.58031142969028	-8.948139518220907	11.5347820345846	0.2013199250033918	0	0	0	0	0	0	25.47602454073992	-25.47602454073992	3.869549570194609	69.64542477985559	86.13045064919498	0	0	25.47602454073992	-25.47602454073992	3.869549570194609	69.64542477985559	86.13045064898395	0	0
14.63999999999978	0.878110887472013	-5.062678032749002	38.7303038408746	0	0.9399999999999999	0	3.580903871967811	-1.260195020325462	-16.494305003294	3.866207803418182	0.06747805573594495	0	0	0	12.10315150972455	-12.7174780309049	-8.901568650083265	11.94980036605059	0.2085633613436064	0	0	0	0	0	0	25.47997467858289	-25.47997467858289	3.869998318947456	69.65167865380435	86.13000190046606	0	0	25.47997467858289	-25.47997467858289	3.869998318947456	69.65167865380435	86.1300019002551	0	0
14.65999999999978	0.8297118863256583	-5.135707556863768	38.76643087262607	0	0.9399999999999999	0	3.668216352157137	-1.239670914476427	-16.51112676715904	4.09120421757247	0.07140498396811805	0	0	0	12.60220964982111	-12.84113022480097	-8.633070732453472	12.5448412429959	0.2189487838302564	0	0	0	0	0	0	25.4837591399788	-25.4837591399788	3.870427902264427	69.65766495519993	86.12957231717202	0	0	25.4837591399788	-25.4837591399788	3.870427902264427	69.65766495519993	86.12957231696116	0	0
14.67999999999978	0.6987403011468666	-5.345774353615972	38.86642350382321	0	0.9399999999999999	0	3.952082813839363	-1.151892199659634	-16.51158035173489	4.632390476971891	0.08085046606119006	0	0	0	13.26066321717333	-12.99948392368756	-8.238265465718293	13.17600392482872	0.2299646507439566	0	0	0	0	0	0	25.49128422806675	-25.49128422806675	3.871273603220886	69.66943959628917	86.12872661626071	0	0	25.49128422806675	-25.49128422806675	3.871273603220886	69.66943959628917	86.12872661604993	0	0
14.69999999999978	0.5573247434439593	-5.571974103171491	38.94488844162362	0	0.9399999999999999	0	4.190121082645602	-1.067448024199005	-16.6175792931732	4.638748982252321	0.080961442913839	0	0	0	13.96989840676381	-13.20507260107207	-7.917559513335852	13.70736919413546	0.2392387242241056	0	0	0	0	0	0	25.49641028965025	-25.49641028965025	3.871854625768059	69.67753487668973	86.12814559374456	0	0	25.49641028965025	-25.49641028965025	3.871854625768059	69.67753487668973	86.12814559353393	0	0
